<svg xmlns="http://www.w3.org/2000/svg" viewBox="0 0 80.79 24.59"><defs><style>.cls-1{fill:none;stroke:#000;stroke-miterlimit:10;}</style></defs><title>Belt</title><g id="Layer_2" data-name="Layer 2"><g id="Belt"><polyline class="cls-1" points="19.44 23.54 19.25 11.73 13.56 16.04 5.06 16.04 5.06 21.63 0.5 21.63 0.5 0.96 5.05 0.98"/><polyline class="cls-1" points="21.09 19.6 29.88 19.6 57.33 19.6 57.33 23.93 80.29 24 80.29 0.5 69.42 0.5 69.38 2.75 57.33 2.75 57.33 8.48 21.02 8.48"/><polygon class="cls-1" points="19.44 0.94 5.05 0.98 5.08 16.06 13.58 16.04 19.26 11.72 19.44 1.11 19.44 0.94"/><polyline class="cls-1" points="5.06 21.63 5.06 23.54 19.44 23.54 19.48 23.54 21.02 22.99 21.02 3.46 19.44 0.94"/><polygon class="cls-1" points="57.33 8.48 57.33 23.93 64.81 24.08 64.81 2.67 57.33 2.75 57.33 8.48"/><polygon class="cls-1" points="34.54 8.48 34.54 17.96 35.67 19.6 47.21 19.6 48.5 18.04 48.63 8.49 34.54 8.48"/><polygon class="cls-1" points="72.54 2.67 64.81 2.67 64.85 24 72.71 24 72.54 2.67"/><rect class="cls-1" x="57.33" y="10.79" width="15.37" height="6.63"/></g></g></svg>