<svg xmlns="http://www.w3.org/2000/svg" viewBox="0 0 65.37 33.99"><defs><style>.cls-1{fill:none;stroke:#000;stroke-miterlimit:10;}</style></defs><title>Cod</title><g id="Layer_2" data-name="Layer 2"><g id="Cod"><path class="cls-1" d="M37,32.52c6.23-2.85,8.42-14.47,14.5-22.31,1.62-2.1,5.59-2.73,9.63-5.38,1-.69.79-3.5,2.06-4.16,0,0-22,.94-31.31,1-10.45,0-20.3-.33-29.5-1,1.27.66,1,3.47,2.06,4.16,4,2.65,8,3.28,9.63,5.38,6,7.79,8.42,19.45,14.5,22.31a11,11,0,0,0,3.9,1A11.29,11.29,0,0,0,37,32.52Z"/></g></g></svg>