<svg xmlns="http://www.w3.org/2000/svg" viewBox="0 0 199.25 472.63"><defs><style>.cls-1{fill:none;stroke:#231f20;stroke-miterlimit:10;}</style></defs><title>Flightsuit (3)</title><g id="Layer_2" data-name="Layer 2"><g id="Flightsuit"><path class="cls-1" d="M99.17,234l-8.63,76.5q.28,22.2,0,45.17c-.42,33.59-1.76,66-3.83,97.17a5.85,5.85,0,0,0,.33,2.33,6,6,0,0,0,1.84,2.5c1.14,1,2.09,4.28,1.33,14.17l-26.33.33c0-2.78.15-6.26.33-10.33a10.78,10.78,0,0,1,1-5,9.22,9.22,0,0,1,2.5-3c-2.07-31.32-3.36-64-3.67-97.84q-.2-22.47.17-44.16C54.65,238.29,55.52,215.57,60,203c3.47-9.81,6-15.74,9.84-28.05a59.63,59.63,0,0,0,1.91-7.51c.53-2.93.63-5,1-7.09,1.16-6.59-2.86-8.89-6.51-22.05-2.89-10.4-3.33-19.58-4.33-19.5-.32,0-.79,1.72-1.72,5.11-.19.71-.29,1.06-.45,1.72-1.45,5.91-5.33,13.83-5.33,13.83a110.76,110.76,0,0,0-7.5,22c-2,9.05-.88,10.56-3,18.5a68.73,68.73,0,0,1-6.67,16.17L20.54,232.45c.12.67.3,1.65.5,2.84,1.8,10.61,2.2,11.6,1.89,13.63-.52,3.25-1.57,2.16-3.22,7.7-1.35,4.51-2,6.77-1.83,9,.09,1.2.35,2.51-.34,3s-2.33,0-3.16-1c-1.3-1.57-.05-3.56.33-8,.22-2.6.29-7.74-1.17-8.17-1.11-.32-2.77,2.21-3.5,3.34a18.44,18.44,0,0,0-2.83,8c-.94,5.94-1.41,10.51-1.67,13.66-.07.83.19,3.18-1,3.84a2.21,2.21,0,0,1-2-.17c-1.77-1-1.62-4-1.69-9.34-.1-7.56-.47-6.07-.31-9.33.44-8.64,3.11-16.21,4.67-20.66a93.25,93.25,0,0,1,5.33-12.34c2.14-10.81,4-19.72,5.34-26.33,2.92-14.06,1.94-8.75,3.16-14.83,1.73-8.59,2.07-11.17,3.5-15.17a51.19,51.19,0,0,1,6.67-12.67c4.61-13.56,7.42-24.24,9.17-31.66,1.28-5.47,2.85-10.87,4.16-16.34,2.74-11.44,3-14,5.67-17.16,1.78-2.09,4-3.6,15.17-7.5,5.14-1.8,20.33-6.34,20.33-6.34a13,13,0,0,0,3.67-14,57.93,57.93,0,0,1-4.84-7,56.57,56.57,0,0,1-5.66-13A45.29,45.29,0,0,1,75,29.18c.4-4.34.94-10.15,4.88-16.1.81-1.22,7.66-11.25,19.5-12.46a23.23,23.23,0,0,1,6,.17c4.12,1.71,12.46,6,16.25,14.7,1.81,4.19,2,8,2.25,13.8a51.61,51.61,0,0,1-1.67,17,49.06,49.06,0,0,1-11,19.83,15.14,15.14,0,0,0,.5,7.33,15,15,0,0,0,3.67,6c8.4,2.28,15.35,4.54,20.5,6.34,11.2,3.9,13.38,5.41,15.16,7.5,2.67,3.11,2.93,5.72,5.67,17.16,1.31,5.47,2.88,10.87,4.17,16.34,1.74,7.42,4.55,18.1,9.16,31.66a51.19,51.19,0,0,1,6.67,12.67c1.43,4,1.77,6.58,3.5,15.17,1.23,6.08.24.77,3.17,14.83,1.37,6.61,3.19,15.52,5.33,26.33A93.25,93.25,0,0,1,194,239.79c1.56,4.45,4.23,12,4.67,20.66.16,3.26-.21,1.77-.31,9.33-.07,5.32.08,8.32-1.69,9.34a2.21,2.21,0,0,1-2,.17c-1.19-.66-.93-3-1-3.84-.26-3.15-.73-7.72-1.67-13.66a18.44,18.44,0,0,0-2.83-8c-.73-1.13-2.39-3.66-3.5-3.34-1.46.43-1.39,5.57-1.17,8.17.38,4.44,1.63,6.43.34,8-.84,1-2.45,1.51-3.17,1s-.43-1.8-.33-3c.18-2.23-.49-4.49-1.84-9-1.65-5.54-2.7-4.45-3.21-7.7-.32-2,.08-3,1.88-13.63.2-1.19.38-2.17.5-2.84L162,195.12A68.36,68.36,0,0,1,155.38,179c-2.13-7.94-1-9.45-3-18.5a112.19,112.19,0,0,0-7.5-22s-3.88-7.92-5.34-13.83c-.16-.66-.26-1-.45-1.72-.93-3.39-1.39-5.09-1.71-5.11-1-.08-1.45,9.1-4.34,19.5-3.65,13.16-7.67,15.46-6.51,22.05.38,2.14.48,4.16,1,7.09a59.1,59.1,0,0,0,1.91,7.51c5.56,17.74,8.34,26.61,10.26,31.68,3.83,10.14,4.83,37-4.67,105.17q.36,21.69.17,44.16c-.31,33.88-1.6,66.52-3.67,97.84a9.22,9.22,0,0,1,2.5,3,10.78,10.78,0,0,1,1,5c.18,4.07.28,7.55.34,10.33L109,470.79c-.76-9.89.19-13.17,1.34-14.17a6.07,6.07,0,0,0,1.83-2.5,5.85,5.85,0,0,0,.33-2.33c-2.07-31.16-3.41-63.58-3.83-97.17q-.28-23,0-45.17l-7.59-75.61Z"/><line class="cls-1" x1="21.96" y1="229.52" x2="10.79" y2="227.17"/><line class="cls-1" x1="178.02" y1="229.74" x2="188.38" y2="226.56"/></g></g></svg>