<svg xmlns="http://www.w3.org/2000/svg" viewBox="0 0 188.04 47.01"><defs><style>.cls-1{fill:none;stroke:#231f20;stroke-miterlimit:10;}</style></defs><title>Gauntlets</title><g id="Layer_2" data-name="Layer 2"><g id="Gauntlets"><path class="cls-1" d="M177.17.57a50.49,50.49,0,0,0-22.63,9.62l16.38,36.13A30.38,30.38,0,0,1,185,42.69l-7.2-38.54Z"/><polygon class="cls-1" points="184.54 7.07 177.63 3.02 184.44 39.44 186.17 34.32 187.54 34.2 187.54 16.45 185.67 15.57 184.54 7.07"/><path class="cls-1" d="M10.88.57a51,51,0,0,1,13.5,4.12,51.23,51.23,0,0,1,9.12,5.5L17.12,46.32a30,30,0,0,0-5.22-2.21A30.73,30.73,0,0,0,3,42.69L10.2,4.15Z"/><polygon class="cls-1" points="3.5 7.07 10.42 3.02 3.61 39.44 1.88 34.32 0.5 34.2 0.5 16.45 2.38 15.57 3.5 7.07"/></g></g></svg>