<svg xmlns="http://www.w3.org/2000/svg" viewBox="0 0 45.95 89.94"><defs><style>.cls-1{fill:none;stroke:#000;stroke-miterlimit:10;}</style></defs><title>Left Holster</title><g id="Layer_2" data-name="Layer 2"><g id="Left_Holster" data-name="Left Holster"><path class="cls-1" d="M32.84,80.56c-.15,3-.3,5.93-.47,8.88H41.2l.62-55.64c-2.58,0-8.07-.22-8.07-.22q-2.46-2.94-4.91-6c-6.32-7.87-12-15.68-17.25-23.34a.89.89,0,0,0-.66.14L9.7,3.85l0-3.33L.52.5l0,4.17,2.75.08c5.8,9.7,12.4,19.82,19.92,30.17q5.46,7.52,10.9,14.33S33.36,70.15,32.84,80.56Z"/><path class="cls-1" d="M44.32,89.44H41.2c.33-28,.52-47.62.42-53.42,0-.59,0-2.18.2-2.22.6-.08,2.32,8.75,3.63,15.89Z"/></g></g></svg>