<svg xmlns="http://www.w3.org/2000/svg" viewBox="0 0 33.65 19.67"><defs><style>.cls-1{fill:none;stroke:#231f20;stroke-miterlimit:10;}</style></defs><title>Neck Seal</title><g id="Layer_2" data-name="Layer 2"><g id="Neck_Seal" data-name="Neck Seal"><path class="cls-1" d="M33,14.3a28.19,28.19,0,0,1-14.49,4.85A36.25,36.25,0,0,1,8,17.71,45.44,45.44,0,0,1,.76,15.15,20.81,20.81,0,0,0,4.05,7.7a20.63,20.63,0,0,0,.37-6.55A25.89,25.89,0,0,0,17.76,3.86a25.78,25.78,0,0,0,10.5-3,26.7,26.7,0,0,0,.91,6A27.21,27.21,0,0,0,33,14.3Z"/></g></g></svg>