<svg xmlns="http://www.w3.org/2000/svg" viewBox="0 0 45.95 89.94"><defs><style>.cls-1{fill:none;stroke:#000;stroke-miterlimit:10;}</style></defs><title>Right Holster (4)</title><g id="Layer_2" data-name="Layer 2"><g id="Right_Holster" data-name="Right Holster"><path class="cls-1" d="M13.11,80.56c.15,3,.3,5.93.47,8.88H4.75L4.13,33.8c2.58,0,8.07-.22,8.07-.22q2.46-2.94,4.91-6c6.32-7.87,12.05-15.68,17.25-23.34a.89.89,0,0,1,.66.14l1.23-.54,0-3.33,9.13,0,0,4.17-2.75.08c-5.8,9.7-12.4,19.82-19.92,30.17q-5.46,7.52-10.9,14.33S12.59,70.15,13.11,80.56Z"/><path class="cls-1" d="M1.63,89.44H4.75c-.33-28-.52-47.62-.42-53.42,0-.59,0-2.18-.2-2.22C3.53,33.72,1.8,42.55.5,49.69Z"/></g></g></svg>