<svg xmlns="http://www.w3.org/2000/svg" viewBox="0 0 72.58 20.59"><defs><style>.cls-1{fill:none;stroke:#000;stroke-miterlimit:10;}</style></defs><title>Short Boots</title><g id="Layer_2" data-name="Layer 2"><g id="Short_Boots" data-name="Short Boots"><path class="cls-1" d="M68.28.5h-19a14,14,0,0,1-.93,2.07,18.13,18.13,0,0,1-1.9,2.75c-.37.52-.91,1.49-.92,6.64,0,1.71.05,3.94.27,6.54l26.29.58c0-2-.07-4.63-.17-7.67-.18-4.88-.37-7-1.86-9.1A9,9,0,0,0,68.28.5Z"/><path class="cls-1" d="M4.05.5h19a13.75,13.75,0,0,0,1.17,3.07,18.76,18.76,0,0,0,1.91,2.75c.37.52.91,1.49.92,6.64,0,1.71-.05,3.94-.27,6.54L.51,20.08c0-2,.06-4.63.17-7.67C.85,7.53,1,5.3,2.54,3.31,3.23,2.44,4,1.85,4.05.5Z"/></g></g></svg>