<svg xmlns="http://www.w3.org/2000/svg" viewBox="0 0 86.56 72.96"><defs><style>.cls-1{fill:none;stroke:#000;stroke-miterlimit:10;}</style></defs><title>Side Thigh Plates</title><g id="Layer_2" data-name="Layer 2"><g id="Side_Thigh_Plates" data-name="Side Thigh Plates"><path class="cls-1" d="M76.41,61.79c.8,1.51,1.81,3.07,3.83,6.18,2.54,3.91,3.22,4.61,3.74,4.48,1.18-.29,1-4.69,1-5.77-.27-9.28,1.13-18.56,1.07-27.85-.13-20.31.3-26.06-3.54-34.48-.73-1.6-1.42-2.86-1.88-3.68a10.75,10.75,0,0,0-4,0,12.32,12.32,0,0,0-2.76,1c-2.85,1.46-8.65,15.68-5.5,36.13A86.6,86.6,0,0,0,76.41,61.79Z"/><path class="cls-1" d="M10.15,61.79C9.35,63.3,8.34,64.86,6.32,68c-2.54,3.91-3.22,4.61-3.74,4.48-1.18-.29-1-4.69-1-5.77C1.84,57.4.44,48.12.5,38.83.63,18.52.2,12.77,4,4.35,4.77,2.75,5.46,1.49,5.92.67a10.75,10.75,0,0,1,4,0,12.32,12.32,0,0,1,2.76,1c2.85,1.46,8.65,15.68,5.5,36.13A86.6,86.6,0,0,1,10.15,61.79Z"/></g></g></svg>