<svg xmlns="http://www.w3.org/2000/svg" viewBox="0 0 79.06 102.51"><defs><style>.cls-1{fill:none;stroke:#000;stroke-miterlimit:10;}</style></defs><title>Tall Boots</title><g id="Layer_2" data-name="Layer 2"><g id="Tall_Boots" data-name="Tall Boots"><path class="cls-1" d="M47.53.5h31l-5,85.32a15.9,15.9,0,0,1,1.39,3.93c.44,2.09.29,3.44.29,6.75,0,1.25,0,3.15.15,5.5L49,101.67c-.23-2.51-.28-4.62-.27-6.17,0-4.51.47-5.88.71-6.49a11.16,11.16,0,0,1,2.73-4Q49.86,42.75,47.53.5Z"/><path class="cls-1" d="M31.53.5H.53l5,85.32a15.9,15.9,0,0,0-1.39,3.93c-.44,2.09-.29,3.44-.29,6.75,0,1.25,0,3.15-.15,5.5L30,101.67c.23-2.51.28-4.62.27-6.17,0-4.51-.47-5.88-.71-6.49a11.16,11.16,0,0,0-2.73-4Q29.2,42.75,31.53.5Z"/></g></g></svg>