<svg xmlns="http://www.w3.org/2000/svg" viewBox="0 0 80.85 88.06"><defs><style>.cls-1{fill:#fff;stroke:#231f20;stroke-miterlimit:10;}</style></defs><title>Vest</title><g id="Layer_2" data-name="Layer 2"><g id="Vest"><path class="cls-1" d="M69.17,86.27A50.06,50.06,0,0,1,69.08,77c.74-8.58,3.43-13.3,5.59-20.67a74.7,74.7,0,0,0,2.91-19A92.23,92.23,0,0,1,77.83,22,87.6,87.6,0,0,1,80.26,8.35,65.65,65.65,0,0,0,55.58.52a31,31,0,0,1-15,4.16h-.32a31,31,0,0,1-15-4.16A65.81,65.81,0,0,0,.58,8.35,86.43,86.43,0,0,1,3,22c.39,3.86-.44,4.1-1.09,15.5-.2,3.48,1.7,15.3,2.87,19.15,1.64,5.39,5.67,19.15,5.88,20.68a37.46,37.46,0,0,1,.16,8.75c8.94.87,18.76,1.45,29.34,1.46C50.59,87.57,60.29,87.07,69.17,86.27Z"/></g></g></svg>