<svg xmlns="http://www.w3.org/2000/svg" viewBox="0 0 137.69 15.06"><defs><style>.cls-1{fill:none;stroke:#231f20;stroke-miterlimit:10;}</style></defs><title>Wren Shoulders</title><g id="Layer_2" data-name="Layer 2"><g id="Wren_Shoulders" data-name="Wren Shoulders"><path class="cls-1" d="M106.87.55a16.42,16.42,0,0,0-1.75,3.5,16.07,16.07,0,0,0-.87,4.25,34.66,34.66,0,0,0,1.87,3c.64.9,1.27,1.71,1.88,2.43l26.5.82c.54-.93,1.09-1.89,1.62-2.88.3-.54.59-1.08.88-1.62A116.34,116.34,0,0,0,106.87.55Z"/><path class="cls-1" d="M30.81.55a15.53,15.53,0,0,1,1.75,3.5,16.14,16.14,0,0,1,.88,4.25,32.6,32.6,0,0,1-1.88,3c-.63.9-1.26,1.71-1.87,2.43l-26.5.82c-.55-.93-1.09-1.89-1.63-2.88q-.45-.81-.87-1.62A115.58,115.58,0,0,1,13.44,4.92,117,117,0,0,1,30.81.55Z"/></g></g></svg>